<mxfile host="app.diagrams.net" agent="Mozilla/5.0 (Windows NT 10.0; Win64; x64) AppleWebKit/537.36 (KHTML, like Gecko) Chrome/134.0.0.0 Safari/537.36" version="26.1.0">
  <diagram name="Page-1" id="Y7Iii6px-q2RERmSMDh1">
    <mxGraphModel dx="3447" dy="1373" grid="1" gridSize="10" guides="1" tooltips="1" connect="1" arrows="1" fold="1" page="1" pageScale="1" pageWidth="827" pageHeight="1169" math="0" shadow="0">
      <root>
        <mxCell id="0" />
        <mxCell id="1" parent="0" />
        <mxCell id="ZrKHlsOdaH-sZiTSAcSX-1" value="StockShark" style="html=1;dropTarget=0;whiteSpace=wrap;" vertex="1" parent="1">
          <mxGeometry x="370" y="170" width="130" height="40" as="geometry" />
        </mxCell>
        <mxCell id="ZrKHlsOdaH-sZiTSAcSX-2" value="" style="shape=module;jettyWidth=8;jettyHeight=4;" vertex="1" parent="ZrKHlsOdaH-sZiTSAcSX-1">
          <mxGeometry x="1" width="20" height="20" relative="1" as="geometry">
            <mxPoint x="-27" y="7" as="offset" />
          </mxGeometry>
        </mxCell>
        <mxCell id="ZrKHlsOdaH-sZiTSAcSX-3" value="User" style="html=1;dropTarget=0;whiteSpace=wrap;" vertex="1" parent="1">
          <mxGeometry x="200" y="330" width="130" height="40" as="geometry" />
        </mxCell>
        <mxCell id="ZrKHlsOdaH-sZiTSAcSX-4" value="" style="shape=module;jettyWidth=8;jettyHeight=4;" vertex="1" parent="ZrKHlsOdaH-sZiTSAcSX-3">
          <mxGeometry x="1" width="20" height="20" relative="1" as="geometry">
            <mxPoint x="-27" y="7" as="offset" />
          </mxGeometry>
        </mxCell>
        <mxCell id="ZrKHlsOdaH-sZiTSAcSX-5" value="Stock" style="html=1;dropTarget=0;whiteSpace=wrap;" vertex="1" parent="1">
          <mxGeometry x="200" y="410" width="130" height="40" as="geometry" />
        </mxCell>
        <mxCell id="ZrKHlsOdaH-sZiTSAcSX-6" value="" style="shape=module;jettyWidth=8;jettyHeight=4;" vertex="1" parent="ZrKHlsOdaH-sZiTSAcSX-5">
          <mxGeometry x="1" width="20" height="20" relative="1" as="geometry">
            <mxPoint x="-27" y="7" as="offset" />
          </mxGeometry>
        </mxCell>
        <mxCell id="ZrKHlsOdaH-sZiTSAcSX-7" value="" style="rounded=0;orthogonalLoop=1;jettySize=auto;html=1;endArrow=halfCircle;endFill=0;endSize=6;strokeWidth=1;sketch=0;exitX=0.5;exitY=1;exitDx=0;exitDy=0;" edge="1" target="ZrKHlsOdaH-sZiTSAcSX-9" parent="1" source="ZrKHlsOdaH-sZiTSAcSX-1">
          <mxGeometry relative="1" as="geometry">
            <mxPoint x="470" y="280" as="sourcePoint" />
            <Array as="points" />
          </mxGeometry>
        </mxCell>
        <mxCell id="ZrKHlsOdaH-sZiTSAcSX-8" value="" style="rounded=0;orthogonalLoop=1;jettySize=auto;html=1;endArrow=oval;endFill=0;sketch=0;sourcePerimeterSpacing=0;targetPerimeterSpacing=0;endSize=10;exitX=1;exitY=0.5;exitDx=0;exitDy=0;" edge="1" target="ZrKHlsOdaH-sZiTSAcSX-9" parent="1" source="ZrKHlsOdaH-sZiTSAcSX-3">
          <mxGeometry relative="1" as="geometry">
            <mxPoint x="440" y="326" as="sourcePoint" />
          </mxGeometry>
        </mxCell>
        <mxCell id="ZrKHlsOdaH-sZiTSAcSX-9" value="" style="ellipse;whiteSpace=wrap;html=1;align=center;aspect=fixed;fillColor=none;strokeColor=none;resizable=0;perimeter=centerPerimeter;rotatable=0;allowArrows=0;points=[];outlineConnect=1;" vertex="1" parent="1">
          <mxGeometry x="370" y="320" width="10" height="10" as="geometry" />
        </mxCell>
        <mxCell id="ZrKHlsOdaH-sZiTSAcSX-10" value="" style="rounded=0;orthogonalLoop=1;jettySize=auto;html=1;endArrow=halfCircle;endFill=0;endSize=6;strokeWidth=1;sketch=0;exitX=0.5;exitY=1;exitDx=0;exitDy=0;" edge="1" target="ZrKHlsOdaH-sZiTSAcSX-12" parent="1" source="ZrKHlsOdaH-sZiTSAcSX-1">
          <mxGeometry relative="1" as="geometry">
            <mxPoint x="450" y="400" as="sourcePoint" />
          </mxGeometry>
        </mxCell>
        <mxCell id="ZrKHlsOdaH-sZiTSAcSX-11" value="" style="rounded=0;orthogonalLoop=1;jettySize=auto;html=1;endArrow=oval;endFill=0;sketch=0;sourcePerimeterSpacing=0;targetPerimeterSpacing=0;endSize=10;exitX=1;exitY=0.5;exitDx=0;exitDy=0;" edge="1" target="ZrKHlsOdaH-sZiTSAcSX-12" parent="1" source="ZrKHlsOdaH-sZiTSAcSX-5">
          <mxGeometry relative="1" as="geometry">
            <mxPoint x="415" y="335" as="sourcePoint" />
          </mxGeometry>
        </mxCell>
        <mxCell id="ZrKHlsOdaH-sZiTSAcSX-12" value="" style="ellipse;whiteSpace=wrap;html=1;align=center;aspect=fixed;fillColor=none;strokeColor=none;resizable=0;perimeter=centerPerimeter;rotatable=0;allowArrows=0;points=[];outlineConnect=1;" vertex="1" parent="1">
          <mxGeometry x="409" y="390" width="10" height="10" as="geometry" />
        </mxCell>
        <mxCell id="ZrKHlsOdaH-sZiTSAcSX-13" value="IUserSession" style="text;html=1;align=center;verticalAlign=middle;resizable=0;points=[];autosize=1;strokeColor=none;fillColor=none;" vertex="1" parent="1">
          <mxGeometry x="300" y="290" width="90" height="30" as="geometry" />
        </mxCell>
        <mxCell id="ZrKHlsOdaH-sZiTSAcSX-14" value="IStockViewer" style="text;html=1;align=center;verticalAlign=middle;resizable=0;points=[];autosize=1;strokeColor=none;fillColor=none;" vertex="1" parent="1">
          <mxGeometry x="385" y="398" width="90" height="30" as="geometry" />
        </mxCell>
        <mxCell id="ZrKHlsOdaH-sZiTSAcSX-23" value="" style="rounded=0;orthogonalLoop=1;jettySize=auto;html=1;endArrow=oval;endFill=0;sketch=0;sourcePerimeterSpacing=0;targetPerimeterSpacing=0;endSize=10;exitX=1;exitY=0.5;exitDx=0;exitDy=0;" edge="1" target="ZrKHlsOdaH-sZiTSAcSX-24" parent="1" source="ZrKHlsOdaH-sZiTSAcSX-1">
          <mxGeometry relative="1" as="geometry">
            <mxPoint x="520" y="175" as="sourcePoint" />
          </mxGeometry>
        </mxCell>
        <mxCell id="ZrKHlsOdaH-sZiTSAcSX-24" value="" style="ellipse;whiteSpace=wrap;html=1;align=center;aspect=fixed;fillColor=none;strokeColor=none;resizable=0;perimeter=centerPerimeter;rotatable=0;allowArrows=0;points=[];outlineConnect=1;" vertex="1" parent="1">
          <mxGeometry x="570" y="75" width="10" height="10" as="geometry" />
        </mxCell>
        <mxCell id="ZrKHlsOdaH-sZiTSAcSX-29" value="" style="ellipse;whiteSpace=wrap;html=1;align=center;aspect=fixed;fillColor=none;strokeColor=none;resizable=0;perimeter=centerPerimeter;rotatable=0;allowArrows=0;points=[];outlineConnect=1;" vertex="1" parent="1">
          <mxGeometry x="590" y="190" width="10" height="10" as="geometry" />
        </mxCell>
        <mxCell id="ZrKHlsOdaH-sZiTSAcSX-31" value="&lt;div&gt;iAI&lt;/div&gt;&lt;div&gt;&lt;br&gt;&lt;/div&gt;&lt;div&gt;iData&lt;/div&gt;&lt;div&gt;&lt;br&gt;&lt;/div&gt;&lt;div&gt;iLogin&lt;/div&gt;&lt;div&gt;&lt;br&gt;&lt;/div&gt;&lt;div&gt;iNotification&lt;/div&gt;&lt;div&gt;&lt;br&gt;&lt;/div&gt;&lt;div&gt;iPortfolio&lt;/div&gt;&lt;div&gt;&lt;br&gt;&lt;/div&gt;iStockComparison&lt;div&gt;&lt;br&gt;&lt;/div&gt;&lt;div&gt;iStockData&lt;/div&gt;&lt;div&gt;&lt;br&gt;&lt;/div&gt;&lt;div&gt;iStockDisplay&lt;/div&gt;&lt;div&gt;&lt;br&gt;&lt;/div&gt;&lt;div&gt;iStock Graph&lt;/div&gt;" style="text;html=1;align=left;verticalAlign=middle;resizable=0;points=[];autosize=1;strokeColor=none;fillColor=none;" vertex="1" parent="1">
          <mxGeometry x="585" y="65" width="120" height="260" as="geometry" />
        </mxCell>
        <mxCell id="ZrKHlsOdaH-sZiTSAcSX-33" value="" style="rounded=0;orthogonalLoop=1;jettySize=auto;html=1;endArrow=oval;endFill=0;sketch=0;sourcePerimeterSpacing=0;targetPerimeterSpacing=0;endSize=10;exitX=1;exitY=0.5;exitDx=0;exitDy=0;" edge="1" target="ZrKHlsOdaH-sZiTSAcSX-34" parent="1" source="ZrKHlsOdaH-sZiTSAcSX-1">
          <mxGeometry relative="1" as="geometry">
            <mxPoint x="520" y="170" as="sourcePoint" />
          </mxGeometry>
        </mxCell>
        <mxCell id="ZrKHlsOdaH-sZiTSAcSX-34" value="" style="ellipse;whiteSpace=wrap;html=1;align=center;aspect=fixed;fillColor=none;strokeColor=none;resizable=0;perimeter=centerPerimeter;rotatable=0;allowArrows=0;points=[];outlineConnect=1;" vertex="1" parent="1">
          <mxGeometry x="570" y="104" width="10" height="10" as="geometry" />
        </mxCell>
        <mxCell id="ZrKHlsOdaH-sZiTSAcSX-36" value="" style="rounded=0;orthogonalLoop=1;jettySize=auto;html=1;endArrow=oval;endFill=0;sketch=0;sourcePerimeterSpacing=0;targetPerimeterSpacing=0;endSize=10;exitX=1;exitY=0.5;exitDx=0;exitDy=0;" edge="1" target="ZrKHlsOdaH-sZiTSAcSX-37" parent="1" source="ZrKHlsOdaH-sZiTSAcSX-1">
          <mxGeometry relative="1" as="geometry">
            <mxPoint x="550" y="185" as="sourcePoint" />
          </mxGeometry>
        </mxCell>
        <mxCell id="ZrKHlsOdaH-sZiTSAcSX-37" value="" style="ellipse;whiteSpace=wrap;html=1;align=center;aspect=fixed;fillColor=none;strokeColor=none;resizable=0;perimeter=centerPerimeter;rotatable=0;allowArrows=0;points=[];outlineConnect=1;" vertex="1" parent="1">
          <mxGeometry x="570" y="132" width="10" height="10" as="geometry" />
        </mxCell>
        <mxCell id="ZrKHlsOdaH-sZiTSAcSX-39" value="" style="rounded=0;orthogonalLoop=1;jettySize=auto;html=1;endArrow=oval;endFill=0;sketch=0;sourcePerimeterSpacing=0;targetPerimeterSpacing=0;endSize=10;exitX=1;exitY=0.5;exitDx=0;exitDy=0;" edge="1" target="ZrKHlsOdaH-sZiTSAcSX-40" parent="1" source="ZrKHlsOdaH-sZiTSAcSX-1">
          <mxGeometry relative="1" as="geometry">
            <mxPoint x="520" y="215" as="sourcePoint" />
          </mxGeometry>
        </mxCell>
        <mxCell id="ZrKHlsOdaH-sZiTSAcSX-40" value="" style="ellipse;whiteSpace=wrap;html=1;align=center;aspect=fixed;fillColor=none;strokeColor=none;resizable=0;perimeter=centerPerimeter;rotatable=0;allowArrows=0;points=[];outlineConnect=1;" vertex="1" parent="1">
          <mxGeometry x="570" y="161" width="10" height="10" as="geometry" />
        </mxCell>
        <mxCell id="ZrKHlsOdaH-sZiTSAcSX-42" value="" style="rounded=0;orthogonalLoop=1;jettySize=auto;html=1;endArrow=oval;endFill=0;sketch=0;sourcePerimeterSpacing=0;targetPerimeterSpacing=0;endSize=10;exitX=1;exitY=0.5;exitDx=0;exitDy=0;" edge="1" target="ZrKHlsOdaH-sZiTSAcSX-43" parent="1" source="ZrKHlsOdaH-sZiTSAcSX-1">
          <mxGeometry relative="1" as="geometry">
            <mxPoint x="540" y="235" as="sourcePoint" />
          </mxGeometry>
        </mxCell>
        <mxCell id="ZrKHlsOdaH-sZiTSAcSX-43" value="" style="ellipse;whiteSpace=wrap;html=1;align=center;aspect=fixed;fillColor=none;strokeColor=none;resizable=0;perimeter=centerPerimeter;rotatable=0;allowArrows=0;points=[];outlineConnect=1;" vertex="1" parent="1">
          <mxGeometry x="570" y="189" width="10" height="10" as="geometry" />
        </mxCell>
        <mxCell id="ZrKHlsOdaH-sZiTSAcSX-45" value="" style="rounded=0;orthogonalLoop=1;jettySize=auto;html=1;endArrow=oval;endFill=0;sketch=0;sourcePerimeterSpacing=0;targetPerimeterSpacing=0;endSize=10;exitX=1;exitY=0.5;exitDx=0;exitDy=0;" edge="1" target="ZrKHlsOdaH-sZiTSAcSX-46" parent="1" source="ZrKHlsOdaH-sZiTSAcSX-1">
          <mxGeometry relative="1" as="geometry">
            <mxPoint x="520" y="225" as="sourcePoint" />
          </mxGeometry>
        </mxCell>
        <mxCell id="ZrKHlsOdaH-sZiTSAcSX-46" value="" style="ellipse;whiteSpace=wrap;html=1;align=center;aspect=fixed;fillColor=none;strokeColor=none;resizable=0;perimeter=centerPerimeter;rotatable=0;allowArrows=0;points=[];outlineConnect=1;" vertex="1" parent="1">
          <mxGeometry x="570" y="218" width="10" height="10" as="geometry" />
        </mxCell>
        <mxCell id="ZrKHlsOdaH-sZiTSAcSX-48" value="" style="rounded=0;orthogonalLoop=1;jettySize=auto;html=1;endArrow=oval;endFill=0;sketch=0;sourcePerimeterSpacing=0;targetPerimeterSpacing=0;endSize=10;exitX=1;exitY=0.5;exitDx=0;exitDy=0;" edge="1" target="ZrKHlsOdaH-sZiTSAcSX-49" parent="1" source="ZrKHlsOdaH-sZiTSAcSX-1">
          <mxGeometry relative="1" as="geometry">
            <mxPoint x="480" y="255" as="sourcePoint" />
          </mxGeometry>
        </mxCell>
        <mxCell id="ZrKHlsOdaH-sZiTSAcSX-49" value="" style="ellipse;whiteSpace=wrap;html=1;align=center;aspect=fixed;fillColor=none;strokeColor=none;resizable=0;perimeter=centerPerimeter;rotatable=0;allowArrows=0;points=[];outlineConnect=1;" vertex="1" parent="1">
          <mxGeometry x="569" y="247" width="10" height="10" as="geometry" />
        </mxCell>
        <mxCell id="ZrKHlsOdaH-sZiTSAcSX-51" value="" style="rounded=0;orthogonalLoop=1;jettySize=auto;html=1;endArrow=oval;endFill=0;sketch=0;sourcePerimeterSpacing=0;targetPerimeterSpacing=0;endSize=10;exitX=1;exitY=0.5;exitDx=0;exitDy=0;" edge="1" target="ZrKHlsOdaH-sZiTSAcSX-52" parent="1" source="ZrKHlsOdaH-sZiTSAcSX-1">
          <mxGeometry relative="1" as="geometry">
            <mxPoint x="510" y="285" as="sourcePoint" />
          </mxGeometry>
        </mxCell>
        <mxCell id="ZrKHlsOdaH-sZiTSAcSX-52" value="" style="ellipse;whiteSpace=wrap;html=1;align=center;aspect=fixed;fillColor=none;strokeColor=none;resizable=0;perimeter=centerPerimeter;rotatable=0;allowArrows=0;points=[];outlineConnect=1;" vertex="1" parent="1">
          <mxGeometry x="569" y="276" width="10" height="10" as="geometry" />
        </mxCell>
        <mxCell id="ZrKHlsOdaH-sZiTSAcSX-54" value="" style="rounded=0;orthogonalLoop=1;jettySize=auto;html=1;endArrow=oval;endFill=0;sketch=0;sourcePerimeterSpacing=0;targetPerimeterSpacing=0;endSize=10;exitX=1;exitY=0.5;exitDx=0;exitDy=0;" edge="1" target="ZrKHlsOdaH-sZiTSAcSX-55" parent="1" source="ZrKHlsOdaH-sZiTSAcSX-1">
          <mxGeometry relative="1" as="geometry">
            <mxPoint x="500" y="305" as="sourcePoint" />
          </mxGeometry>
        </mxCell>
        <mxCell id="ZrKHlsOdaH-sZiTSAcSX-55" value="" style="ellipse;whiteSpace=wrap;html=1;align=center;aspect=fixed;fillColor=none;strokeColor=none;resizable=0;perimeter=centerPerimeter;rotatable=0;allowArrows=0;points=[];outlineConnect=1;" vertex="1" parent="1">
          <mxGeometry x="569" y="304" width="10" height="10" as="geometry" />
        </mxCell>
      </root>
    </mxGraphModel>
  </diagram>
</mxfile>
